<?xml version="1.0" encoding="UTF-8" standalone="no"?>
<svg xmlns:ffdec="https://www.free-decompiler.com/flash" xmlns:xlink="http://www.w3.org/1999/xlink" ffdec:objectType="shape" height="37.4px" width="37.4px" xmlns="http://www.w3.org/2000/svg">
  <g transform="matrix(1.0, 0.0, 0.0, 1.0, 0.0, 0.0)">
    <path d="M2.25 18.6 Q2.25 11.9 7.0 7.15 11.75 2.4 18.45 2.4 25.15 2.4 29.9 7.15 34.65 11.9 34.65 18.6 34.65 25.3 29.9 30.05 25.15 34.8 18.45 34.8 11.75 34.8 7.0 30.05 2.25 25.3 2.25 18.6" fill="url(#gradient0)" fill-rule="evenodd" stroke="none"/>
    <path d="M26.4 12.85 L20.2 18.05 26.05 18.25 37.4 18.7 19.55 19.4 21.15 21.65 24.55 26.45 19.35 20.2 19.1 26.05 Q18.7 33.2 18.65 37.4 18.1 28.1 17.95 19.75 L15.8 21.25 11.0 24.65 17.35 19.4 11.35 19.15 0.0 18.7 17.7 18.0 16.15 15.9 12.75 11.05 18.0 17.35 18.2 11.35 18.65 0.0 Q19.2 9.4 19.35 17.85 L21.55 16.25 26.4 12.85" fill="#ffffff" fill-rule="evenodd" stroke="none"/>
  </g>
  <defs>
    <radialGradient cx="0" cy="0" gradientTransform="matrix(0.0199, 0.0, 0.0, 0.0199, 18.45, 18.6)" gradientUnits="userSpaceOnUse" id="gradient0" r="819.2" spreadMethod="pad">
      <stop offset="0.0" stop-color="#ffffff"/>
      <stop offset="1.0" stop-color="#ffffff" stop-opacity="0.0"/>
    </radialGradient>
  </defs>
</svg>
