<?xml version="1.0" encoding="UTF-8" standalone="no"?>
<svg xmlns:ffdec="https://www.free-decompiler.com/flash" xmlns:xlink="http://www.w3.org/1999/xlink" ffdec:objectType="shape" height="108.85px" width="213.65px" xmlns="http://www.w3.org/2000/svg">
  <g transform="matrix(1.0, 0.0, 0.0, 1.0, 85.85, 58.75)">
    <path d="M29.0 -56.6 L41.45 -6.75 25.7 -4.75 23.7 -14.45 12.35 -14.25 10.3 -4.65 -3.15 -5.95 -4.15 -6.9 -4.75 -5.55 -36.45 -6.25 -37.25 -57.3 -21.35 -57.3 -19.2 -21.6 -6.65 -21.05 -4.95 -12.1 6.85 -56.6 29.0 -56.6 M15.05 -27.45 L21.0 -27.55 18.05 -41.8 15.05 -27.45 M62.95 -15.25 L55.2 -2.05 40.5 -13.4 51.9 -30.15 40.25 -47.5 55.1 -58.3 62.6 -44.55 72.3 -58.55 84.6 -49.9 72.75 -29.95 84.75 -10.75 72.3 -1.9 62.95 -15.25 M100.8 -57.4 L105.7 -38.5 112.4 -58.75 127.8 -55.25 116.7 -21.15 116.4 -5.8 95.85 -6.2 95.05 -21.6 83.2 -56.6 100.8 -57.4 M49.45 31.25 L38.0 33.05 37.7 36.35 55.85 35.7 55.45 50.1 21.2 50.1 23.4 3.55 Q54.7 2.85 54.55 3.55 L53.55 16.25 38.9 16.85 38.65 20.85 49.85 20.75 49.45 31.25 M-73.2 -55.2 L-50.6 -55.05 -38.3 -5.2 -54.05 -3.35 -56.25 -13.1 -54.05 -13.1 -57.15 -17.1 -56.25 -13.1 -67.85 -13.1 -69.7 -3.2 -85.85 -5.35 -73.2 -55.2 M21.55 3.15 L22.25 15.15 3.65 16.6 3.15 23.0 13.95 22.45 13.3 31.15 3.3 31.15 3.3 47.2 -15.0 49.15 -11.8 5.3 21.55 3.15 M-64.9 -27.0 L-59.4 -26.9 -62.5 -41.8 -64.9 -27.0 M-35.3 35.15 L-34.6 45.95 -31.1 3.7 -17.5 3.4 -17.0 49.4 -62.1 49.95 -63.3 3.0 -48.1 3.15 -47.3 35.15 -35.3 35.15" fill="#ffffff" fill-opacity="0.9843137" fill-rule="evenodd" stroke="none"/>
  </g>
</svg>
